<?xml version="1.0" standalone="no"?>
<!DOCTYPE svg PUBLIC "-//W3C//DTD SVG 20010904//EN"
 "http://www.w3.org/TR/2001/REC-SVG-20010904/DTD/svg10.dtd">
<svg version="1.0" xmlns="http://www.w3.org/2000/svg"
 width="206.000000pt" height="206.000000pt" viewBox="0 0 206.000000 206.000000"
 preserveAspectRatio="xMidYMid meet">
<metadata>
Created by potrace 1.14, written by Peter Selinger 2001-2017
</metadata>
<g transform="translate(0.000000,206.000000) scale(0.100000,-0.100000)"
fill="#000000" stroke="none">
<path d="M0 1030 l0 -1030 1030 0 1030 0 0 1030 0 1030 -1030 0 -1030 0 0
-1030z m980 171 l0 -480 23 -3 c16 -2 21 -9 19 -23 -2 -11 1 -16 5 -10 14 19
80 34 93 21 9 -8 14 -8 17 2 3 8 29 12 79 12 l74 0 0 -80 0 -80 -95 0 c-91 0
-95 1 -96 23 l-2 22 -4 -23 c-4 -22 -7 -22 -154 -22 l-149 0 0 560 0 560 95 0
95 0 0 -479z"/>
<path d="M1082 666 c7 -8 16 -12 21 -9 11 7 -2 23 -19 23 -12 0 -12 -2 -2 -14z"/>
<path d="M1020 627 c0 -20 4 -23 25 -19 14 2 25 9 25 14 0 5 -4 7 -9 3 -5 -3
-17 2 -25 11 -15 14 -16 13 -16 -9z"/>
<path d="M1120 620 c0 -5 5 -10 10 -10 6 0 10 5 10 10 0 6 -4 10 -10 10 -5 0
-10 -4 -10 -10z"/>
<path d="M1020 580 c0 -5 7 -10 15 -10 8 0 15 5 15 10 0 6 -7 10 -15 10 -8 0
-15 -4 -15 -10z"/>
</g>
</svg>
